<svg xmlns="http://www.w3.org/2000/svg" width="385" height="256" fill="none" viewBox="0 0 385 256">
    <mask id="kb6jspdeia" width="348" height="256" x="0" y="0" maskUnits="userSpaceOnUse">
        <path fill="#FFFBFB" d="M0 0H348V256H0z"/>
    </mask>
    <g mask="url(#kb6jspdeia)">
        <circle cx="68" cy="239" r="158" fill="#47B4BB"/>
        <circle cx="229.5" cy="217" r="67" fill="#F4C55B"/>
    </g>
    <g clip-path="url(#clip0)">
        <path fill="#E3FDFF" d="M289.034 47.036L312.141 94.4c.751 1.539.112 3.394-1.427 4.145L218.772 143.4l-25.825-52.936 91.942-44.855c1.538-.75 3.394-.112 4.145 1.427z"/>
        <path fill="#BEF5F9" d="M262.471 211.762l-2.854 8.29-16.716 8.156-8.291-2.854-16.311-33.433 2.854-8.291 16.717-8.156 8.29 2.854 16.311 33.434z"/>
        <path fill="#F4C55B" d="M235.219 162.971l-22.289 10.874c-1.539.75-2.178 2.606-1.427 4.145l2.718 5.572c.751 1.539 2.607 2.178 4.146 1.427l22.289-10.874c1.538-.751 2.177-2.606 1.426-4.145l-2.718-5.572c-.751-1.539-2.607-2.178-4.145-1.427z"/>
        <path fill="#E3FDFF" d="M235.219 162.971l-8.359 4.077c1.539-.75 3.395-.111 4.146 1.427l2.718 5.573c.751 1.538.112 3.394-1.427 4.145l8.359-4.078c1.538-.75 2.177-2.606 1.427-4.145l-2.719-5.572c-.751-1.539-2.607-2.178-4.145-1.427z"/>
        <path fill="#CECECE" d="M194.921 172.283l-5.572 2.718c-1.539.751-2.177 2.607-1.427 4.145l10.874 22.289c.751 1.539 2.607 2.178 4.146 1.427l5.572-2.718c1.539-.751 2.177-2.607 1.427-4.146l-10.874-22.289c-.751-1.538-2.607-2.177-4.146-1.426zM245.687 226.849l11.144-5.437 4.078 8.358c.751 1.539.112 3.395-1.427 4.145l-5.572 2.719c-1.539.75-3.395.112-4.145-1.427l-4.078-8.358z"/>
        <path fill="#DAFDFF" d="M296.101 33.24l31.262 64.081c1.491 3.078.216 6.782-2.853 8.291l-103.087 50.292c-1.538.751-3.394.112-4.145-1.427l-2.719-5.572c-.75-1.539-.111-3.395 1.427-4.145l94.728-46.215c1.539-.75 2.178-2.606 1.427-4.145l-23.107-47.364c-.751-1.539-2.607-2.178-4.145-1.427l-94.728 46.214c-1.539.751-3.395.112-4.146-1.427l-2.718-5.572c-.751-1.538-.112-3.394 1.427-4.145L287.81 30.387c3.078-1.49 6.782-.216 8.291 2.853z"/>
        <path fill="#F4C55B" d="M237.389 82.58L215.1 93.452c-1.539.75-2.177 2.607-1.427 4.145l12.233 25.076c.751 1.538 2.607 2.177 4.146 1.426l22.289-10.874c1.538-.75 2.177-2.606 1.427-4.145l-12.234-25.075c-.75-1.539-2.606-2.177-4.145-1.427z"/>
        <path fill="#DAFDFF" d="M237.389 82.58l-8.358 4.077c1.538-.75 3.394-.112 4.145 1.427l12.233 25.075c.751 1.538.112 3.394-1.427 4.145l8.359-4.078c1.539-.75 2.177-2.606 1.427-4.145l-12.234-25.075c-.75-1.539-2.606-2.178-4.145-1.427z"/>
        <path fill="#F4C55B" d="M276.395 63.55l-22.289 10.874c-1.539.75-2.178 2.606-1.427 4.145l12.233 25.075c.751 1.539 2.607 2.178 4.146 1.427l22.289-10.874c1.538-.75 2.177-2.607 1.426-4.145L280.54 64.977c-.75-1.54-2.606-2.178-4.145-1.427z"/>
        <path fill="#DAFDFF" d="M276.395 63.55l-8.358 4.077c1.538-.75 3.394-.111 4.145 1.427l12.233 25.075c.751 1.539.112 3.395-1.427 4.146l8.359-4.078c1.538-.75 2.177-2.607 1.427-4.145L280.54 64.976c-.75-1.538-2.606-2.177-4.145-1.426z"/>
        <path fill="#E3FDFF" d="M212.45 80.95l16.716-8.156 5.437 11.144-16.716 8.156-5.437-11.145zM232.838 122.741l16.717-8.155 5.437 11.144-16.717 8.155-5.437-11.144zM251.455 61.92l16.717-8.156 5.437 11.145-16.717 8.155-5.437-11.144zM271.844 103.712l16.716-8.156 5.437 11.145-16.716 8.155-5.437-11.144z"/>
        <path fill="#fff" d="M202.941 202.862l5.572-2.718c.488-.254.898-.637 1.185-1.106-1.086-.068-2.055-.708-2.544-1.68l-10.874-22.289c-.465-.984-.373-2.141.242-3.04-.547-.062-1.1.025-1.601.254l-5.572 2.718c-1.539.751-2.178 2.607-1.427 4.146l10.874 22.288c.75 1.539 2.606 2.178 4.145 1.427zM221.423 155.904l8.358-4.078c-1.539.751-3.395.112-4.145-1.427l-2.719-5.572c-.75-1.538-.112-3.394 1.427-4.145l2.786-1.359-25.825-52.937-2.787 1.36c-1.538.75-3.394.112-4.145-1.427l-2.718-5.573c-.751-1.538-.112-3.394 1.426-4.145l-8.358 4.078c-1.539.75-2.177 2.606-1.427 4.145l2.719 5.573c.75 1.538 2.606 2.177 4.145 1.426l2.786-1.359 25.826 52.936-2.786 1.36c-1.539.75-2.178 2.606-1.427 4.145l2.718 5.572c.751 1.539 2.607 2.178 4.146 1.427zM214.221 183.562c.751 1.539 2.607 2.178 4.146 1.427l2.786-1.359-2.854 8.291 16.311 33.433 8.291 2.854 2.786-1.359 4.078 8.358c.75 1.539 2.606 2.177 4.145 1.427l5.572-2.719c.488-.254.898-.636 1.185-1.106-1.086-.068-2.055-.707-2.544-1.68l-4.078-8.358-2.786 1.359-8.291-2.854-16.311-33.433 2.854-8.291-2.786 1.359c-1.539.751-3.395.112-4.145-1.426l-2.719-5.573c-.751-1.538-.112-3.394 1.427-4.145l-8.358 4.078c-1.539.75-2.178 2.606-1.427 4.145l2.718 5.572z"/>
        <path fill="#fff" d="M190.163 91.822l5.572-2.719 10.874 22.289-5.572 2.719-10.874-22.289z"/>
        <path fill="#47B4BB" d="M199.801 104.366c-.993.491-2.172.414-3.093-.2-.922-.615-1.445-1.675-1.373-2.78.071-1.105.727-2.088 1.72-2.579l.028-.013c1.539-.75 3.394-.112 4.145 1.427.751 1.538.112 3.394-1.427 4.145z"/>
        <path fill="#47B4BB" d="M204.3 205.648l5.573-2.718c3.077-1.501 4.355-5.213 2.853-8.291l-4.077-8.358 2.786-1.359c.923 1.882 2.735 3.17 4.816 3.424l-.883 2.566c-.268.777-.216 1.629.145 2.368l16.31 33.433c.361.739 1 1.305 1.778 1.572l8.291 2.854c.777.267 1.629.215 2.368-.145l2.718 5.572c1.501 3.078 5.213 4.355 8.291 2.854l2.718 5.572c.751 1.539 2.607 2.178 4.146 1.427 1.538-.751 2.177-2.606 1.427-4.145l-2.719-5.572c3.077-1.502 4.355-5.214 2.854-8.291l-2.719-5.572c.739-.361 1.304-1 1.572-1.778l2.854-8.29c.267-.778.215-1.63-.145-2.369l-16.311-33.433c-.361-.739-1-1.304-1.777-1.571l-2.566-.884c1.081-1.796 1.181-4.017.265-5.903l-2.718-5.573c-1.502-3.077-5.214-4.355-8.291-2.853l-8.358 4.077-2.719-5.572 103.087-50.292c4.616-2.252 6.532-7.82 4.28-12.436l-31.262-64.08c-2.253-4.617-7.82-6.533-12.437-4.281L183.364 77.893c-3.077 1.501-4.355 5.213-2.854 8.29l2.719 5.573c1.501 3.077 5.213 4.355 8.291 2.853l19.502-9.514 2.719 5.572c-3.078 1.501-4.355 5.213-2.854 8.29l12.233 25.076c1.502 3.077 5.214 4.355 8.291 2.854l2.719 5.572-13.931 6.796-13.593-27.861c-.75-1.539-2.606-2.178-4.145-1.427-1.539.751-2.177 2.607-1.427 4.145l13.593 27.862c-3.078 1.501-4.355 5.213-2.854 8.29l8.155 16.717-8.358 4.078c-3.077 1.501-4.355 5.213-2.854 8.29l-2.786 1.36-4.078-8.359c-1.501-3.077-5.213-4.355-8.29-2.853l-5.573 2.718c-3.077 1.501-4.355 5.213-2.853 8.291l10.874 22.289c1.501 3.077 5.213 4.355 8.29 2.853zm12.295-123.272l11.144-5.437 2.719 5.573-11.145 5.437-2.718-5.573zm33.433-16.31l2.718 5.572c-3.077 1.501-4.355 5.213-2.853 8.29l12.233 25.075c1.501 3.078 5.213 4.356 8.291 2.854l2.718 5.572-16.717 8.156-2.718-5.572c3.077-1.502 4.355-5.214 2.854-8.291l-12.233-25.075c-1.502-3.078-5.214-4.355-8.291-2.854l-2.719-5.572 16.717-8.156zm36.22-17.67l23.107 47.363-13.931 6.796-2.718-5.572c3.077-1.501 4.355-5.213 2.853-8.29l-12.233-25.076c-1.501-3.077-5.213-4.355-8.291-2.853l-2.718-5.573 13.931-6.796zM258.251 75.85l19.503-9.515 12.233 25.075-22.289 10.874-12.233-25.075 2.786-1.36zm17.738 29.288l11.144-5.437 2.719 5.572-11.145 5.437-2.718-5.572zm-6.526-41.657l-11.144 5.437-2.719-5.572 11.145-5.437 2.718 5.572zM216.459 96.24l22.289-10.874 12.233 25.075-22.288 10.874-12.234-25.075zm20.524 27.929l11.145-5.437 2.718 5.572-11.144 5.437-2.719-5.572zm-19.638 23.378l94.728-46.215c3.078-1.5 4.355-5.213 2.854-8.29L291.82 45.677c-1.502-3.078-5.213-4.355-8.291-2.854l-94.728 46.214-2.718-5.572 103.086-50.292c1.539-.75 3.395-.112 4.145 1.427l31.263 64.08c.751 1.539.112 3.395-1.427 4.146l-103.086 50.292-2.719-5.572zm40.778 83.583l-5.573 2.719-2.718-5.572 5.572-2.719 2.719 5.572zm-1.021-13.299l-14.405 7.028-5.864-2.017-.797-1.632 2.787-1.359c1.538-.751 2.177-2.607 1.426-4.146-.75-1.539-2.606-2.177-4.145-1.427l-2.786 1.36-2.719-5.573 2.787-1.359c1.538-.751 2.177-2.607 1.426-4.145-.75-1.539-2.606-2.178-4.145-1.427l-2.786 1.359-2.718-5.572 2.786-1.359c1.538-.751 2.177-2.607 1.427-4.146-.751-1.538-2.607-2.177-4.146-1.427l-2.786 1.36-.796-1.633 2.02-5.863 14.41-7.03 5.858 2.019.797 1.633-2.786 1.359c-1.539.751-2.178 2.607-1.427 4.145.751 1.539 2.607 2.178 4.145 1.427l2.786-1.359 2.719 5.572-2.786 1.359c-1.539.751-2.178 2.607-1.427 4.146.751 1.539 2.607 2.177 4.145 1.427l2.786-1.36 2.719 5.573-2.786 1.359c-1.539.751-2.178 2.607-1.427 4.145.751 1.539 2.607 2.178 4.145 1.427l2.786-1.359.797 1.633-2.02 5.862zm-42.813-41.199l22.288-10.874 2.719 5.572-22.289 10.874-2.718-5.572zm-23.581 1.156l5.572-2.718 10.874 22.289-5.572 2.718-10.874-22.289z"/>
    </g>
    <defs>
        <clipPath id="clip0">
            <path fill="#fff" d="M0 0H186V186H0z" transform="rotate(-26.006 286.686 -243.969)"/>
        </clipPath>
    </defs>
</svg>
