<svg xmlns="http://www.w3.org/2000/svg" width="42" height="42" fill="none" viewBox="0 0 42 42">
    <g clip-path="url(#clip0)">
        <path fill="#E8FEFF" d="M35.735 24.836c.007-.007.007-.007 0-.014-.054-.4-.139-.796-.252-1.183l-.007-.007c-2.022 1.494-4.418 2.4-6.923 2.618h-.182c-2.268 0-6.048.77-6.048-4.62 0-3.08 3.78-3.08 6.048-3.08h.147c.539 0 3.451-.063 4.536-.784 1.673-1.12 2.261-3.689 2.261-6.916 0-4.151-5.278-4.2-5.502-4.2h-5.082c-3.563 0-3.563-2.177-3.563-2.905 0-.616.924-1.12 2.429-1.673l-.028-.077c-.839-.122-1.686-.179-2.534-.168-8.813 0-16.681 4.718-16.681 14.504 0 2.415 1.029 6.006 1.932 8.365l-.021.126c-.007.007-.007.007 0 .014-.04.302-.051.606-.035.91-.008 1.182.66 2.265 1.722 2.786 1.533.784 2.646 1.365 3.374 2.618.556 1.088.878 2.28.945 3.5.021.224.042.462.056.707.04.763.657 1.369 1.421 1.393h14.504c.113 0 .226-.013.336-.042.61-.176 1.044-.717 1.085-1.351.315-4.711 1.715-5.46 4.375-6.825 1.575-.812 1.862-2.289 1.687-3.696z"/>
        <path fill="#FFEFEC" d="M13.748 26.187c-2.17 0-4.347-.742-3.626-3.696.721-2.954 1.456-3.689 3.626-3.689s5.803 0 5.803 2.954c0 5.166-3.626 4.431-5.803 4.431z"/>
        <path fill="#7C44C3" d="M21 31.143c0 .7-2.1 1.225-2.1-.175 0-.693 0-3.318 1.4-3.318.187-.004.367.068.5.2.131.133.204.313.2.5-.004-.187.068-.367.2-.5.133-.132.313-.204.5-.2 1.4 0 1.4 2.625 1.4 3.318 0 1.4-2.1.875-2.1.175z"/>
        <path fill="#6BC8CE" d="M20.921 31.374c-.245.283-.596.453-.97.469.39.075.785-.116.97-.469z"/>
        <path fill="#83CACE" d="M35.735 24.836c.007-.007.007-.007 0-.014-.054-.4-.138-.796-.252-1.183l-.007-.007c-.59.417-1.21.793-1.852 1.125 0 .022.008.043.011.065.007.007.007.007 0 .014.175 1.407-.112 2.884-1.687 3.696-2.66 1.365-4.06 2.114-4.375 6.825-.04.634-.474 1.175-1.085 1.351-.11.029-.222.043-.336.042h2.1c.114 0 .227-.013.336-.042.61-.176 1.045-.717 1.085-1.351.315-4.711 1.715-5.46 4.375-6.825 1.575-.812 1.862-2.289 1.687-3.696zM33.216 10.85c0 3.227-.588 5.796-2.261 6.916-1.085.721-3.997.784-4.536.784h-.147c-2.268 0-6.048 0-6.048 3.08 0 5.1 3.383 4.686 5.67 4.626-1.828-.15-3.57-.968-3.57-4.626 0-3.08 3.78-3.08 6.048-3.08h.147c.539 0 3.45-.063 4.536-.784 1.673-1.12 2.26-3.689 2.26-6.916 0-4.151-5.277-4.2-5.501-4.2h-2.1c.224 0 5.502.049 5.502 4.2zM13.748 26.187c-2.17 0-4.347-.742-3.626-3.696.654-2.646 1.311-3.512 3.01-3.662-.525-.026-1.035-.027-1.482-.027-2.17 0-2.898.742-3.626 3.689-.728 2.947 1.456 3.696 3.626 3.696.7 0 1.552.074 2.385.005-.098-.002-.195-.005-.287-.005z"/>
        <path fill="#6BC8CE" d="M21.47 1.995l.027.077c-1.505.553-2.429 1.057-2.429 1.673 0 .728 0 2.905 3.563 2.905h2.1c-3.563 0-3.563-2.177-3.563-2.905 0-.616.924-1.12 2.43-1.673l-.029-.077c-.839-.122-1.686-.179-2.534-.168-.364 0-.726.011-1.086.027.509.02 1.016.066 1.52.141z"/>
        <path fill="#7C44C3" d="M19.551 21.756c0 5.166-3.626 4.431-5.803 4.431s-4.347-.742-3.626-3.696c.721-2.954 1.456-3.689 3.626-3.689s5.803 0 5.803 2.954z"/>
        <path fill="#FFEFEC" d="M32.599 39.473c0 1.631-4.921 1.477-6.524 1.477H8.315c-3.818-.083-7.01-2.928-7.529-6.712-.52-3.784 1.789-7.384 5.444-8.492-.009 1.182.66 2.265 1.722 2.786 1.533.784 2.646 1.365 3.374 2.618H8.022c-.967 0-1.75.784-1.75 1.75 0 .967.783 1.75 1.75 1.75h4.249c.02.224.042.462.056.707.04.763.657 1.369 1.42 1.393h14.505c.113 0 .226-.013.336-.042 1.015.574 4.01 2.303 4.01 2.765z"/>
        <path fill="#C8E5E7" d="M32.599 39.473c0 1.631-4.921 1.477-6.524 1.477H8.315c-3.818-.083-7.01-2.928-7.529-6.712-.52-3.784 1.789-7.384 5.444-8.492-.009 1.182.66 2.265 1.722 2.786 1.533.784 2.646 1.365 3.374 2.618H8.022c-.967 0-1.75.784-1.75 1.75 0 .967.783 1.75 1.75 1.75h4.249c.02.224.042.462.056.707.04.763.657 1.369 1.42 1.393h14.505c.113 0 .226-.013.336-.042 1.015.574 4.01 2.303 4.01 2.765z"/>
        <path fill="#83CACE" d="M6.3 32.9c-.003-.46.176-.903.499-1.232.323-.328.763-.514 1.223-.518h-2.1c-.966 0-1.75.784-1.75 1.75 0 .967.784 1.75 1.75 1.75h2.1c-.46-.004-.9-.19-1.223-.518-.323-.328-.502-.772-.499-1.232zM10.227 35.357c.04.763.657 1.369 1.42 1.393h2.1c-.763-.024-1.38-.63-1.42-1.393-.014-.245-.035-.483-.056-.707h-2.1c.02.224.042.462.056.707zM5.852 28.532c1.533.784 2.646 1.365 3.374 2.618h2.1c-.728-1.253-1.841-1.834-3.374-2.618-1.061-.521-1.73-1.604-1.722-2.786-.692.203-1.351.505-1.957.897.228.828.804 1.517 1.579 1.889zM28.588 36.708c-.11.029-.222.043-.336.042h-1.69c1.075.61 3.937 2.27 3.937 2.723 0 1.253-2.9 1.452-4.97 1.477h.55c1.602 0 6.523.154 6.523-1.477-.003-.462-2.999-2.191-4.014-2.765z"/>
        <path fill="#C8E5E7" d="M41.3 11.004c0 5.117-1.624 9.016-4.494 11.571-.422.379-.866.732-1.33 1.057-2.022 1.494-4.418 2.4-6.923 2.618h-.182c-2.268 0-6.048.77-6.048-4.62 0-3.08 3.78-3.08 6.048-3.08h.147c.539 0 3.451-.063 4.536-.784 1.673-1.12 2.261-3.689 2.261-6.916 0-4.151-5.278-4.2-5.502-4.2h-5.082c-3.563 0-3.563-2.177-3.563-2.905 0-.616.924-1.12 2.429-1.673.28-.105.581-.21.903-.322 2.142-.728 2.8-.7 5.222-.7 4.585 0 11.578 2.499 11.578 9.954z"/>
        <path fill="#83CACE" d="M29.722 1.05c-.647 0-1.166 0-1.623.01 4.576.166 11.101 2.743 11.101 9.944 0 5.117-1.624 9.016-4.494 11.571-.422.379-.866.732-1.33 1.057-2.022 1.494-4.418 2.4-6.923 2.618h-.182c-.122 0-.25 0-.38.006.867.07 1.75-.006 2.48-.006h.182c2.505-.218 4.9-1.124 6.923-2.618.464-.326.908-.678 1.33-1.057 2.87-2.555 4.494-6.454 4.494-11.571 0-7.455-6.993-9.954-11.578-9.954z"/>
        <path fill="#C8E5E7" d="M24.19 1.856c.495.02.989.066 1.479.14l.028.077c1.418-.63 2.945-.974 4.495-1.013-.159-.006-.316-.01-.47-.01-2.405 0-3.168-.038-5.532.806zM8.316 40.95h2.1c-4.24-.043-7.647-3.509-7.616-7.749-.004-2.652 1.343-5.124 3.573-6.558.608-.39 1.268-.693 1.96-.897-.016-.304-.004-.608.035-.91-.007-.007-.007-.007 0-.014l.021-.126c-.903-2.359-1.932-5.95-1.932-8.365 0-9.38 7.232-14.102 15.595-14.477-.337-.015-.673-.027-1.014-.027-8.816 0-16.684 4.718-16.684 14.504 0 2.415 1.029 6.006 1.932 8.365l-.021.126c-.007.007-.007.007 0 .014-.04.302-.051.606-.035.91-.692.205-1.35.506-1.957.897C2.043 28.077.696 30.549.7 33.2c-.03 4.24 3.376 7.706 7.616 7.749z"/>
        <path fill="#C8E5E7" d="M4.694 10.6l1.304.508c-.62 1.672-.94 3.44-.943 5.223h-1.4c.003-1.957.355-3.898 1.04-5.732z"/>
        <path fill="#1E1E1E" d="M25.9 4.55c.387 0 .7-.313.7-.7 0-.387-.313-.7-.7-.7-.386 0-.7.313-.7.7 0 .387.314.7.7.7zM4.632 14.24c-.387.002-.702-.31-.704-.696-.002-.387.31-.702.697-.704h.007c.386 0 .7.313.7.7 0 .387-.314.7-.7.7zM13.752 18.103c-2.8 0-3.589 1.302-4.306 4.223-.358 1.066-.19 2.238.455 3.16.727.927 2.022 1.4 3.85 1.4.224 0 .464.008.714.016.29.01.595.02.906.02 1.287.112 2.565-.293 3.553-1.124.893-.863 1.326-2.184 1.326-4.04.001-3.655-4.39-3.655-6.498-3.655zm4.2 6.686c-.828.8-2.215.755-3.44.712-.266-.01-.523-.018-.761-.018-.947 0-2.19-.149-2.75-.861-.363-.589-.435-1.311-.196-1.96.715-2.914 1.306-3.158 2.946-3.158 3.23 0 5.1.368 5.1 2.253 0 1.435-.301 2.456-.899 3.032zM18.74 32.194c.682.45 1.564.463 2.26.035.357.21.763.32 1.177.321.392.01.775-.115 1.084-.356.36-.302.56-.754.539-1.223 0-2.668-.707-4.021-2.1-4.021-.244-.003-.486.056-.7.172-.215-.116-.456-.175-.7-.172-1.393 0-2.1 1.353-2.1 4.02-.02.47.179.922.54 1.224zm1.56-3.844c0 .387.313.7.7.7.386 0 .7-.313.7-.7.26 0 .7.552.7 2.62 0 .135-.026.14-.057.155-.226.049-.461.007-.657-.116-.064-.328-.352-.564-.686-.564-.334 0-.622.236-.687.564-.195.123-.431.165-.657.116-.03-.01-.056-.02-.056-.154 0-2.069.44-2.621.7-2.621z"/>
        <path fill="#1E1E1E" d="M8.316 41.65h18.64c2.39 0 4.894-.127 5.884-1.11.292-.28.458-.666.46-1.07 0-.39-.01-.834-3.42-2.83.284-.352.454-.783.49-1.235.293-4.349 1.454-4.945 4.001-6.254 1.583-.82 2.296-2.31 2.066-4.316 0-.058-.006-.115-.02-.17-.033-.245-.084-.5-.14-.756.337-.255.672-.52.995-.81C40.365 20.348 42 16.166 42 11.005 42 3.188 34.66.35 29.724.35h-.242c-1.768-.125-3.542.126-5.206.737-.21.07-.415.14-.615.214-.869-.127-1.747-.185-2.625-.174-1.656.014-3.307.185-4.931.51-1.63.361-3.21.921-4.702 1.668-1.504.77-2.864 1.791-4.021 3.02-1.174 1.229-2.088 2.681-2.687 4.27-.08.174-.082.373-.005.547.077.175.226.307.408.364.358.112.743-.059.9-.4.534-1.425 1.353-2.727 2.406-3.826 1.048-1.112 2.28-2.036 3.642-2.73 1.383-.69 2.845-1.207 4.353-1.54 1.527-.305 3.08-.466 4.636-.48h.087c-.314.24-.53.584-.612.97-1.096.218-2.106.748-2.908 1.526-.19.194-.358.408-.5.638-1.17.223-2.252.77-3.125 1.577-.249.279-.235.703.031.965.267.262.692.268.966.015.457-.417.988-.744 1.566-.966-.092.728-.034 1.466.17 2.17.073.245.273.43.521.485.25.055.508-.03.676-.221.169-.192.22-.46.134-.699-.005-.018-.58-1.823.56-2.982.56-.541 1.257-.92 2.015-1.097.533 1.98 2.459 2.439 4.117 2.439h5.08c.196 0 4.8.04 4.8 3.5 0 3.34-.656 5.47-1.95 6.334-.8.533-3.314.66-4.089.668H28.372c-2.359 0-6.75 0-6.75 3.78 0 1.929.449 3.3 1.373 4.194 1.027.861 2.353 1.28 3.688 1.165.324 0 .641-.01.943-.021.261-.01.512-.018.746-.018H28.597c2.287-.179 4.494-.924 6.42-2.17.005.032.013.065.017.097 0 .016 0 .034.004.05.187 1.458-.241 2.435-1.307 2.987-2.898 1.489-4.426 2.494-4.76 7.398-.01.396-.325.717-.72.736H27.3v-1.4c0-.387-.314-.7-.7-.7-.387 0-.7.313-.7.7v1.4h-1.4v-1.4c0-.387-.314-.7-.7-.7-.387 0-.7.313-.7.7v1.4h-1.4v-1.4c0-.387-.314-.7-.7-.7-.387 0-.7.313-.7.7v1.4h-1.4v-1.4c0-.387-.314-.7-.7-.7-.387 0-.7.313-.7.7v1.4h-1.4v-1.4c0-.387-.314-.7-.7-.7-.387 0-.7.313-.7.7v1.4h-.949c-.397-.017-.713-.339-.723-.736-.02-1.53-.378-3.036-1.05-4.41-.014-.032-.03-.063-.05-.092-.793-1.355-2-2.05-3.655-2.9-1.068-.555-1.497-1.531-1.309-2.988 0-.018 0-.035.005-.053.151-.96.45-1.89.887-2.757.787-1.62.795-4.659.795-4.788 0-.386-.313-.7-.7-.7-.387 0-.7.314-.7.7 0 .787-.118 3.07-.654 4.174-.12.245-.248.542-.375.857-.658-1.947-1.051-3.974-1.167-6.026 0-.387-.313-.7-.7-.7-.386 0-.7.313-.7.7 0 2.488 1.017 6.057 1.915 8.443 0 .02-.007.041-.007.061-.016.14-.016.27-.023.403C2.207 26.47-.004 29.648 0 33.201c-.031 4.627 3.689 8.407 8.316 8.449zm20.153-16.1h-.097c-.248 0-.515.01-.794.018-1.28.044-2.737.093-3.61-.75-.63-.609-.946-1.68-.946-3.188 0-2.196 2.643-2.38 5.35-2.38h.195c.753-.005 3.647-.083 4.872-.9 1.732-1.155 2.574-3.608 2.574-7.499 0-3.868-3.897-4.9-6.2-4.9h-5.08c-2.865 0-2.865-1.488-2.87-2.177.066-.167.523-.565 2.862-1.36 1.52-.561 3.142-.788 4.757-.664h.242c3.762 0 10.876 1.935 10.876 9.255 0 4.75-1.47 8.57-4.262 11.05-2.87 2.564-6.277 3.495-7.869 3.495zm-17.57 6.3c.296.668.49 1.375.58 2.1H8.022c-.58 0-1.05-.47-1.05-1.05 0-.58.47-1.05 1.05-1.05H10.9zm-5.238-5.153c.255 1.073.977 1.975 1.969 2.458.766.356 1.493.79 2.17 1.295H8.022c-1.353 0-2.45 1.097-2.45 2.45 0 1.353 1.097 2.45 2.45 2.45h3.605c0 .022 0 .04.005.063.069 1.127.99 2.013 2.12 2.037H28.25c.065 0 .128-.013.191-.019 1.178.631 2.306 1.35 3.374 2.152-.808.696-4.216.672-5.346.668L8.316 40.25c-3.854-.04-6.949-3.194-6.916-7.049-.003-2.823 1.672-5.379 4.261-6.504z"/>
    </g>
    <defs>
        <clipPath id="clip0">
            <path fill="#fff" d="M0 0H42V42H0z"/>
        </clipPath>
    </defs>
</svg>
