<svg xmlns="http://www.w3.org/2000/svg" width="56" height="38" fill="none" viewBox="0 0 56 38">
    <path fill="#242424" d="M31.62 25.886c.393-.157.781-.324 1.164-.509.7-.337 1.39-.76 2.113-1.295l-1.108-1.497c-.627.463-1.22.828-1.812 1.112-1.377.664-2.905 1.124-4.386 1.57-.528.16-1.055.318-1.573.485-4.352 1.4-8.92 1.76-13.214 1.04-2.825-.475-5.904-1.262-7.306-3.505l-1.579.989c.921 1.474 2.309 2.434 3.877 3.098-.112.765-.44 2.023-1.409 2.507l.834 1.667c1.551-.776 2.138-2.414 2.36-3.56.398.113.797.214 1.2.303-.1.854-.448 2.528-1.665 3.745l1.317 1.317c1.539-1.538 2.027-3.559 2.181-4.71.633.103 1.271.178 1.913.237.093 1.18.077 3.61-1.405 5.091l1.318 1.318c1.913-1.914 2.056-4.744 1.964-6.307.264.007.527.033.792.033.235 0 .473-.023.708-.028.352 1.09.88 3.614-.899 5.596l1.387 1.245c2.172-2.424 1.855-5.324 1.425-6.938.384-.034.768-.089 1.152-.137.112 1.897.46 5.792 1.452 7.416l1.59-.972c-.674-1.104-1.063-4.43-1.193-6.736.289-.055.578-.109.866-.171.072 1.725.59 4.843 3.181 7.05l1.209-1.42c-2.259-1.922-2.529-4.856-2.534-6.102.349-.099.702-.181 1.049-.293.022-.008.045-.014.068-.02.284 1.787 1.267 5.02 4.693 6.44l.713-1.722c-2.773-1.15-3.443-3.96-3.606-5.271.463-.14.928-.286 1.394-.437.43 1.742 1.746 4.057 4.854 5.083l.584-1.768c-2.705-.894-3.458-2.896-3.668-3.944zM13.869 14.28c2.436-.608 5.277-.652 8.681-.135.814.124 1.552.268 2.257.437l.437-1.81c-.757-.182-1.545-.335-2.412-.468-3.654-.558-6.735-.504-9.416.17-4.537 1.135-8.122 4.34-9.589 8.573l1.762.609c1.259-3.636 4.355-6.393 8.28-7.376z"/>
    <path fill="#242424" d="M55.498 28.503L35.931 8.937l-.16-.16c-1.876-1.875-4.368-2.908-7.02-2.908-.248 0-.485.098-.66.273l-.272.273-1.454-1.453c1.894-.128 3.825-.044 5.806.354l5.74 1.148c.445.09.889-.154 1.053-.578.164-.422-.001-.902-.39-1.135L34.9 2.547C30.892-.018 24.438-.41 19.82.34c-4.271.693-7.912 2.086-11.768 3.56-1.928.739-3.923 1.502-5.998 2.166C.574 6.54-.289 8.092.088 9.597c.2.796.726 1.48 1.445 1.875.44.241.931.365 1.425.365.315 0 .63-.05.934-.152 1.914-.638 3.579-1.283 5.189-1.908 1.59-.616 3.235-1.254 5.106-1.878 3.192-1.063 6.443-2.147 9.81-2.67l2.506 2.504-.273.273c-.176.174-.273.41-.273.659 0 2.652 1.032 5.144 2.907 7.02l.16.16L48.59 35.41c.182.182.42.273.659.273.238 0 .477-.091.658-.273l1.205-1.204 3.068 3.068c.178.178.416.273.659.273.12 0 .241-.023.357-.071.348-.144.574-.485.574-.861v-3.727c0-.247-.097-.484-.273-.658l-1.204-1.205 1.205-1.205c.364-.364.364-.953 0-1.317zM23.82 2.416L22.675 3.56c-3.121.587-6.125 1.586-9.078 2.571-1.915.638-3.58 1.283-5.19 1.908-1.59.616-3.234 1.254-5.105 1.879-.292.096-.602.069-.872-.08-.27-.148-.46-.394-.534-.693-.139-.557.18-1.13.727-1.305 2.124-.68 4.143-1.453 6.096-2.199 3.763-1.44 7.317-2.8 11.399-3.462 1.217-.198 2.604-.31 4.046-.31 3.013 0 6.27.487 8.736 1.693l-.363-.073c-2.733-.546-5.348-.548-7.878-.234l-.839-.84zm4.008 6.626l1.301-1.3c1.778.081 3.449.738 4.804 1.877l-4.227 4.228c-1.14-1.355-1.796-3.027-1.878-4.805zm21.42 24.392L31.002 15.186l4.272-4.272 18.248 18.248-4.272 4.272zm4.66.932l-1.479-1.478.546-.546.932.932v1.092z"/>
</svg>
