<svg xmlns="http://www.w3.org/2000/svg" width="245" height="42" fill="none" viewBox="0 0 245 42">
    <path fill="#000" d="M70.372 11.678h-7.84V33H57.26V11.678h-7.735V7.406h20.848v4.272zm12.217 7.066c-.692-.094-1.3-.14-1.828-.14-1.922 0-3.182.65-3.78 1.95V33h-5.08V13.98h4.8l.14 2.268c1.02-1.746 2.431-2.62 4.236-2.62.563 0 1.09.077 1.582.23l-.07 4.886zM96.44 31.066c-1.254 1.524-2.988 2.286-5.203 2.286-2.039 0-3.597-.586-4.675-1.758-1.067-1.172-1.612-2.889-1.635-5.15V13.98h5.08v12.287c0 1.98.902 2.97 2.707 2.97 1.722 0 2.906-.597 3.55-1.793V13.98h5.098V33h-4.78l-.142-1.934zm17.508 2.286c-2.789 0-5.062-.856-6.82-2.567-1.746-1.71-2.619-3.99-2.619-6.838v-.492c0-1.91.369-3.615 1.107-5.115.738-1.512 1.781-2.672 3.129-3.48 1.359-.82 2.906-1.231 4.641-1.231 2.601 0 4.646.82 6.135 2.46 1.5 1.642 2.25 3.968 2.25 6.98v2.074h-12.112c.164 1.242.656 2.238 1.477 2.988.832.75 1.881 1.125 3.146 1.125 1.957 0 3.487-.71 4.588-2.127l2.496 2.795c-.762 1.078-1.793 1.922-3.094 2.531-1.3.598-2.742.897-4.324.897zm-.58-15.61c-1.008 0-1.828.34-2.461 1.02-.621.68-1.019 1.652-1.195 2.918h7.066v-.405c-.023-1.125-.328-1.992-.914-2.601-.586-.621-1.418-.932-2.496-.932zm26.086 9.985h-9.246L128.45 33h-5.607l9.527-25.594h4.887L146.837 33h-5.608l-1.775-5.273zm-7.822-4.272h6.398l-3.217-9.58-3.181 9.58zm27.949-4.71c-.691-.095-1.301-.142-1.828-.142-1.922 0-3.182.65-3.779 1.952V33h-5.08V13.98h4.798l.141 2.268c1.02-1.746 2.432-2.62 4.236-2.62.563 0 1.09.077 1.582.23l-.07 4.886zm9.422-9.44v4.675h3.252v3.727h-3.252v9.492c0 .703.135 1.207.404 1.512.27.305.785.457 1.547.457.563 0 1.061-.041 1.494-.123v3.85c-.996.304-2.021.457-3.076.457-3.562 0-5.379-1.8-5.449-5.397V17.707h-2.777V13.98h2.777V9.305h5.08zM180.446 33h-5.097V13.98h5.097V33zM175.05 9.059c0-.762.252-1.39.756-1.881.515-.492 1.213-.739 2.091-.739.868 0 1.559.247 2.075.739.515.492.773 1.119.773 1.88 0 .774-.264 1.407-.791 1.899-.516.492-1.201.738-2.057.738-.855 0-1.546-.246-2.074-.738-.515-.492-.773-1.125-.773-1.898zm19.898 18.685c0-.621-.31-1.107-.931-1.459-.61-.363-1.594-.685-2.954-.967-4.523-.949-6.785-2.87-6.785-5.765 0-1.688.698-3.094 2.092-4.219 1.406-1.137 3.24-1.705 5.502-1.705 2.414 0 4.342.568 5.783 1.705 1.453 1.137 2.18 2.613 2.18 4.43h-5.08c0-.727-.234-1.325-.703-1.793-.469-.48-1.201-.721-2.198-.721-.855 0-1.517.193-1.986.58-.469.387-.703.879-.703 1.477 0 .562.264 1.02.791 1.37.539.34 1.441.64 2.707.897 1.266.246 2.332.528 3.199.844 2.684.984 4.026 2.69 4.026 5.115 0 1.735-.744 3.14-2.233 4.219-1.488 1.066-3.41 1.6-5.765 1.6-1.594 0-3.012-.282-4.254-.844-1.231-.574-2.198-1.354-2.901-2.338-.703-.996-1.054-2.068-1.054-3.217h4.816c.047.902.381 1.594 1.002 2.074.621.48 1.453.721 2.496.721.973 0 1.705-.182 2.197-.545.504-.375.756-.861.756-1.459zm14.309-18.44v4.676h3.252v3.727h-3.252v9.492c0 .703.135 1.207.404 1.512.27.305.785.457 1.547.457.563 0 1.061-.041 1.494-.123v3.85c-.996.304-2.021.457-3.076.457-3.563 0-5.379-1.8-5.449-5.397V17.707h-2.778V13.98h2.778V9.305h5.08zm16.383 18.44c0-.621-.311-1.107-.932-1.459-.609-.363-1.594-.685-2.953-.967-4.524-.949-6.785-2.87-6.785-5.765 0-1.688.697-3.094 2.092-4.219 1.406-1.137 3.24-1.705 5.501-1.705 2.415 0 4.342.568 5.784 1.705 1.453 1.137 2.179 2.613 2.179 4.43h-5.08c0-.727-.234-1.325-.703-1.793-.469-.48-1.201-.721-2.197-.721-.856 0-1.518.193-1.986.58-.469.387-.704.879-.704 1.477 0 .562.264 1.02.791 1.37.54.34 1.442.64 2.707.897 1.266.246 2.333.528 3.2.844 2.683.984 4.025 2.69 4.025 5.115 0 1.735-.744 3.14-2.232 4.219-1.489 1.066-3.41 1.6-5.766 1.6-1.594 0-3.012-.282-4.254-.844-1.23-.574-2.197-1.354-2.9-2.338-.703-.996-1.055-2.068-1.055-3.217h4.816c.047.902.381 1.594 1.002 2.074.622.48 1.454.721 2.497.721.972 0 1.705-.182 2.197-.545.504-.375.756-.861.756-1.459zM43.496 25.872l1.582-1.583-1.714-1.715c.99-1.714.79-3.888-.658-5.338l-6.525-6.525s-.065-.065-.132-.065V5.044c0-1.122-.922-2.044-2.044-2.044-1.121 0-2.043.922-2.043 2.044v4.48l-2.241-2.24.593-.593-.329-.329-.593.593-.725-.725-1.583 1.583.725.725-5.338 5.338-1.45-1.45c-.659-.658-1.516-.99-1.845-.593l-2.438 2.437c-.328.33-.064 1.187.594 1.845l.46.46c-1.515-.657-3.361-.328-4.613.923l-9.226 9.227c-1.251 1.25-1.583 3.098-.922 4.613l-2.24 2.24.263 1.715L0 36.347l.329.33.79-.79.197 1.318L4.94 33.58c1.583.79 3.559.593 4.942-.726l9.227-9.226c1.251-1.252 1.582-3.098.922-4.614l1.912 1.912c.065.99.528 1.977 1.25 2.702l6.526 6.525c1.714 1.714 4.548 1.714 6.26 0l1.583 1.582 1.583-1.582-1.583-1.583 4.217-4.217 1.717 1.518zM29.853 10.713l-5.206 5.207-1.78-1.78 5.339-5.338 1.78 1.78c-.068.064-.133.064-.133.131zM237.61 5.262h-1.742V10h-1.172V5.262h-1.718v-.95h4.632v.95zm2.203-.95l1.461 4.125 1.454-4.124h1.539V10h-1.176V8.445l.117-2.683L241.673 10h-.805l-1.531-4.234.117 2.68V10h-1.172V4.312h1.531z"/>
</svg>
