<svg xmlns="http://www.w3.org/2000/svg" width="42" height="42" fill="none" viewBox="0 0 42 42">
    <path fill="#C8E5E6" d="M39.9 13.3H2.1c-.773 0-1.4.627-1.4 1.4v2.8c0 .773.627 1.4 1.4 1.4h37.8c.773 0 1.4-.627 1.4-1.4v-2.8c0-.773-.627-1.4-1.4-1.4z"/>
    <path fill="#E8FEFF" d="M39.9 13.3h-2.1c.773.002 1.398.628 1.4 1.4v2.8c-.002.772-.628 1.398-1.4 1.4h2.1c.773-.002 1.398-.628 1.4-1.4v-2.8c-.002-.772-.627-1.398-1.4-1.4z"/>
    <path fill="#C8E5E6" d="M32.2.7H9.8c-.773 0-1.4.627-1.4 1.4v7c0 .773.627 1.4 1.4 1.4h22.4c.774 0 1.4-.627 1.4-1.4v-7c0-.773-.626-1.4-1.4-1.4z"/>
    <path fill="#E8FEFF" d="M32.2.7h-2.1c.772.002 1.398.628 1.4 1.4v7c-.002.772-.628 1.398-1.4 1.4h2.1c.772-.002 1.398-.628 1.4-1.4v-7c-.002-.772-.628-1.398-1.4-1.4zM11.9 10.5h18.2v2.8H11.9v-2.8z"/>
    <path fill="#fff" d="M3.5 18.9h35v22.4h-35V18.9z"/>
    <path fill="#C8E5E6" d="M36.4 18.9h2.1v22.4h-2.1V18.9zM21 25.9h7v15.4h-7V25.9z"/>
    <path fill="#C8E5E6" d="M25.9 25.9H28v15.4h-2.1V25.9zM14 25.9h7v15.4h-7V25.9z"/>
    <path fill="#C8E5E6" d="M18.9 25.9H21v15.4h-2.1V25.9z"/>
    <path fill="#E8EDFC" d="M21 23.1v2.8h-7v-1.4c.002-.772.628-1.398 1.4-1.4H21zM28 24.5v1.4h-7v-2.8h5.6c.772.002 1.398.628 1.4 1.4z"/>
    <path fill="#C8E5E6" d="M31.5 23.1h7v11.2h-7c-.386 0-.7-.313-.7-.7v-9.8c0-.387.314-.7.7-.7z"/>
    <path fill="#6FC6CC" d="M36.4 23.1h2.1v11.2h-2.1V23.1z"/>
    <path fill="#C8E5E6" d="M3.5 23.1h7c.387 0 .7.313.7.7v9.8c0 .387-.313.7-.7.7h-7V23.1z"/>
    <path fill="#6FC6CC" d="M10.5 23.1H8.4c.387 0 .7.313.7.7v9.8c0 .387-.313.7-.7.7h2.1c.387 0 .7-.313.7-.7v-9.8c0-.387-.313-.7-.7-.7z"/>
    <path fill="#fff" d="M10.5 9.1v-7c.003-.772.628-1.398 1.4-1.4H9.8c-.772.002-1.397.628-1.4 1.4v7c.003.772.628 1.398 1.4 1.4h2.1c-.772-.002-1.397-.628-1.4-1.4zM11.9 10.5H14v2.8h-2.1v-2.8zM2.1 18.9h1.4v22.4h2.1V18.9H4.2c-.772-.002-1.397-.628-1.4-1.4v-2.8c.003-.772.628-1.398 1.4-1.4H2.1c-.772.002-1.397.628-1.4 1.4v2.8c.003.772.628 1.398 1.4 1.4z"/>
    <path fill="#fff" d="M2.8 35.7h1.4v5.6H2.8v-5.6z"/>
    <path fill="#1E1E1E" d="M2.1 19.6h.7v16.1c0 .387.313.7.7.7.387 0 .7-.313.7-.7V35h6.3c.773 0 1.4-.627 1.4-1.4v-9.8c0-.773-.627-1.4-1.4-1.4H4.2v-2.8h33.6v2.8h-6.3c-.773 0-1.4.627-1.4 1.4v9.8c0 .773.627 1.4 1.4 1.4h6.3v5.6h-9.1V24.5c0-1.16-.94-2.1-2.1-2.1H15.4c-1.16 0-2.1.94-2.1 2.1v16.1H1.4c-.387 0-.7.313-.7.7 0 .387.313.7.7.7h39.2c.387 0 .7-.313.7-.7 0-.387-.313-.7-.7-.7h-1.4v-21h.7c1.16 0 2.1-.94 2.1-2.1v-2.8c0-1.16-.94-2.1-2.1-2.1h-9.1v-1.4h1.4c1.16 0 2.1-.94 2.1-2.1v-7c0-1.16-.94-2.1-2.1-2.1H9.8C8.64 0 7.7.94 7.7 2.1v7c0 1.16.94 2.1 2.1 2.1h1.4v1.4H2.1c-1.16 0-2.1.94-2.1 2.1v2.8c0 1.16.94 2.1 2.1 2.1zm25.2 4.9v.7h-5.6v-1.4h4.9c.387 0 .7.313.7.7zm-11.9-.7h4.9v1.4h-5.6v-.7c0-.387.313-.7.7-.7zm-.7 2.8h5.6v5.6h-.7c-.387 0-.7.313-.7.7 0 .387.313.7.7.7h.7v7h-5.6v-14zm7 14v-7h.7c.387 0 .7-.313.7-.7 0-.387-.313-.7-.7-.7h-.7v-5.6h5.6v14h-5.6zm9.8-7v-9.8h6.3v9.8h-6.3zm-21-9.8v9.8H4.2v-9.8h6.3zM9.1 9.1v-7c0-.387.313-.7.7-.7h22.4c.387 0 .7.313.7.7v7c0 .387-.313.7-.7.7H9.8c-.387 0-.7-.313-.7-.7zm3.5 2.1h16.8v1.4H12.6v-1.4zM1.4 14.7c0-.387.313-.7.7-.7h37.8c.387 0 .7.313.7.7v2.8c0 .387-.313.7-.7.7H2.1c-.387 0-.7-.313-.7-.7v-2.8z"/>
    <path fill="#1E1E1E" d="M3.514 39.2c-.387.002-.702-.31-.703-.697-.002-.386.31-.701.696-.703h.007c.387 0 .7.313.7.7 0 .387-.313.7-.7.7zM12.422 7.16c-.126 0-.228-.037-.306-.109-.076-.075-.113-.174-.113-.298V4.628h-.636c-.133 0-.232-.027-.298-.081-.063-.057-.095-.143-.095-.257 0-.114.032-.199.095-.253.066-.054.165-.081.298-.081h2.111c.133 0 .23.027.293.081.067.054.1.139.1.253 0 .114-.033.2-.1.257-.063.054-.16.081-.293.081h-.636v2.125c0 .124-.04.223-.117.298-.075.072-.176.108-.303.108zM17.137 6.627c.027.057.04.113.04.167 0 .1-.04.183-.122.252-.078.07-.168.104-.27.104-.07 0-.133-.018-.19-.054-.057-.036-.102-.09-.135-.162l-.203-.456h-1.462l-.208.456c-.033.072-.08.126-.14.162-.057.036-.12.054-.189.054-.102 0-.195-.034-.28-.104-.08-.069-.121-.153-.121-.252 0-.054.013-.11.04-.167l1.191-2.445c.04-.082.096-.143.172-.185.078-.046.164-.068.257-.068.09 0 .174.022.252.068.079.042.137.103.176.185l1.192 2.445zm-2.062-.772h.902l-.451-1.006-.451 1.006zM18.615 7.16c-.126 0-.228-.037-.306-.109-.076-.075-.113-.174-.113-.298V4.628h-.637c-.132 0-.231-.027-.297-.081-.063-.057-.095-.143-.095-.257 0-.114.032-.199.095-.253.066-.054.165-.081.297-.081h2.112c.132 0 .23.027.293.081.066.054.1.139.1.253 0 .114-.034.2-.1.257-.063.054-.16.081-.293.081h-.636v2.125c0 .124-.04.223-.117.298-.076.072-.176.108-.303.108zM21.835 7.16c-.126 0-.229-.037-.307-.109-.075-.075-.112-.174-.112-.298V4.628h-.637c-.132 0-.231-.027-.297-.081-.064-.057-.095-.143-.095-.257 0-.114.031-.199.095-.253.066-.054.165-.081.297-.081h2.112c.132 0 .23.027.293.081.066.054.1.139.1.253 0 .114-.034.2-.1.257-.063.054-.16.081-.293.081h-.636v2.125c0 .124-.04.223-.118.298-.075.072-.176.108-.302.108zM25.253 7.177c-.325 0-.608-.066-.848-.198-.238-.136-.421-.325-.55-.569-.13-.246-.195-.535-.195-.866 0-.33.065-.618.195-.862.129-.246.312-.436.55-.568.24-.132.523-.199.848-.199.325 0 .606.067.844.199.24.132.424.322.55.568.13.244.194.531.194.862 0 .33-.064.62-.194.866-.13.244-.314.433-.555.569-.237.132-.517.198-.839.198zm0-.636c.24 0 .429-.084.564-.252.135-.172.203-.42.203-.745s-.07-.571-.207-.74c-.136-.168-.322-.253-.56-.253-.24 0-.428.085-.564.253-.135.166-.203.412-.203.74s.068.576.203.745c.136.168.323.252.564.252zM29.213 7.177c-.325 0-.608-.066-.848-.198-.238-.136-.421-.325-.55-.569-.13-.246-.195-.535-.195-.866 0-.33.065-.618.194-.862.13-.246.313-.436.55-.568.241-.132.524-.199.85-.199.324 0 .605.067.843.199.24.132.424.322.55.568.13.244.194.531.194.862 0 .33-.064.62-.194.866-.13.244-.314.433-.555.569-.237.132-.517.198-.839.198zm0-.636c.24 0 .429-.084.564-.252.135-.172.203-.42.203-.745s-.07-.571-.207-.74c-.136-.168-.322-.253-.56-.253-.24 0-.428.085-.564.253-.135.166-.203.412-.203.74s.068.576.203.745c.136.168.323.252.564.252z"/>
</svg>
